<?xml version="1.0" encoding="UTF-8" standalone="no"?><svg xmlns="http://www.w3.org/2000/svg" xmlns:xlink="http://www.w3.org/1999/xlink" contentScriptType="application/ecmascript" contentStyleType="text/css" height="771px" preserveAspectRatio="none" style="width:955px;height:771px;" version="1.1" viewBox="0 0 955 771" width="955px" zoomAndPan="magnify"><defs><filter height="300%" id="f1bs3yn3q21npd" width="300%" x="-1" y="-1"><feGaussianBlur result="blurOut" stdDeviation="2.0"/><feColorMatrix in="blurOut" result="blurOut2" type="matrix" values="0 0 0 0 0 0 0 0 0 0 0 0 0 0 0 0 0 0 .4 0"/><feOffset dx="4.0" dy="4.0" in="blurOut2" result="blurOut3"/><feBlend in="SourceGraphic" in2="blurOut3" mode="normal"/></filter></defs><g><!--MD5=[285121e4a0245909b74264891e275599]
cluster default--><path d="M57.2668,279.6791 C77.9543,254.5316 105.9951,248.9196 121.5935,285.0237 C137.0222,251.5321 161.2195,255.3517 181.3684,280.1863 C202.4977,255.2197 224.4494,254.2483 241.2621,284.8397 C252.553,255.1851 278.4535,253.7166 293.9686,280.9243 C315.9677,254.4635 336.9468,245.8825 359.2928,280.5536 C372.0681,258.2758 393.9041,255.7853 410.666,275.6994 C431.4298,251.3263 452.6287,246.2058 470.3469,278.8853 C487.8208,244.661 514.4236,246.2418 533.4159,277.421 C553.9854,248.998 572.4481,253.62 589.6661,280.8108 C603.2292,249.9956 629.3492,247.4186 646.8692,277.0673 C673.1573,247.3882 699.0411,249.1719 715.0958,287.3556 C731.3957,258.8955 750.9322,262.1334 767.8045,286.7875 C786.3752,254.4357 815.8621,253.5712 832.713,288.448 C851.4131,262.4743 869.6363,256.4634 890.2332,286.5 C894.9555,284.4136 897.0165,286.7058 897.0543,291.2902 C936.4566,314.0674 932.9192,340.5585 897.2494,363.5385 C928.8301,381.2915 929.5233,403.6316 903.3333,426.9291 C939.8101,442.641 943.8939,477.9695 908.3811,498.7418 C935.0007,518.657 937.3904,546.8824 903.6873,562.3459 C929.7622,588.5257 928.6672,611.2621 897.0334,631.923 C931.1408,660.9447 923.8435,691.3045 883.2332,706.5 C886.7935,702.6495 891.189,704.012 892.3986,708.9512 C880.0915,744.0567 848.1318,745.455 828.3968,716.3555 C813.6088,745.9449 784.8528,743.276 769.4763,716.976 C754.9494,749.0999 726.5362,742.5312 710.2223,718.8741 C690.9599,743.3534 666.9017,741.5162 650.9856,714.9879 C630.0619,741.6709 612.0396,743.8397 591.3642,714.7225 C580.6487,740.8957 556.9389,750.7373 536.2678,725.3637 C511.5585,759.6861 491.7929,754.274 470.1812,722.277 C450.8724,748.282 426.9132,750.7607 410.6809,719.1025 C394.2066,744.5196 377.025,743.5182 357.398,722.7388 C335.091,752.6018 310.137,748.3873 295.9051,714.9005 C280.1715,741.5768 255.5926,745.0021 237.8715,717.0104 C217.5711,744.4384 192.7762,737.2151 179.5114,709.5566 C167.3883,738.7431 137.7174,745.0584 119.4334,715.9006 C89.4173,741.5929 62.7902,737.4606 47.2332,699.5 C51.7667,700.8166 51.882,703.3596 49.5731,706.8534 C17.4971,685.0766 20.9922,654.7172 51.6158,634.7158 C16.9435,620.8662 14.3103,589.7418 47.339,571.3246 C13.6215,552.0095 6,522.2629 38.9373,495.5565 C7.0175,473.766 7.8366,445.2158 43.2631,427.7198 C6.6883,405.3113 18.4351,375.2717 48.7018,358.0836 C9.2539,330.6197 19.8495,301.7669 54.2332,279.5 C55.0951,278.0431 56.5878,278.0387 57.2668,279.6791 " fill="#FFFFFF" filter="url(#f1bs3yn3q21npd)" style="stroke: #000000; stroke-width: 1.5;"/><text fill="#000000" font-family="sans-serif" font-size="14" font-style="italic" lengthAdjust="spacingAndGlyphs" textLength="112" x="412.7332" y="298.0352">«fargate profile»</text><text fill="#000000" font-family="sans-serif" font-size="14" font-weight="bold" lengthAdjust="spacingAndGlyphs" textLength="51" x="443.2332" y="314.5234">default</text><!--MD5=[85ce2f755a0154fd1a9114e240f7fa81]
cluster k8s:application--><polygon fill="#FFFFFF" filter="url(#f1bs3yn3q21npd)" points="63.2332,330.5,178.2332,330.5,185.2332,352.9883,576.2332,352.9883,576.2332,690.5,63.2332,690.5,63.2332,330.5" style="stroke: #000000; stroke-width: 1.5;"/><line style="stroke: #000000; stroke-width: 1.5;" x1="63.2332" x2="185.2332" y1="352.9883" y2="352.9883"/><text fill="#000000" font-family="sans-serif" font-size="14" font-weight="bold" lengthAdjust="spacingAndGlyphs" textLength="109" x="67.2332" y="346.0352">k8s:application</text><text fill="#000000" font-family="sans-serif" font-size="14" font-style="italic" lengthAdjust="spacingAndGlyphs" textLength="91" x="278.2332" y="368.5234">«namespace»</text><!--MD5=[10ce29b17d6ed99806f648afb7cfe502]
cluster node 1--><polygon fill="#FFFFFF" filter="url(#f1bs3yn3q21npd)" points="87.2332,399.5,97.2332,389.5,226.2332,389.5,226.2332,514.5,216.2332,524.5,87.2332,524.5,87.2332,399.5" style="stroke: #000000; stroke-width: 1.5;"/><line style="stroke: #000000; stroke-width: 1.5;" x1="216.2332" x2="226.2332" y1="399.5" y2="389.5"/><line style="stroke: #000000; stroke-width: 1.5;" x1="87.2332" x2="216.2332" y1="399.5" y2="399.5"/><line style="stroke: #000000; stroke-width: 1.5;" x1="216.2332" x2="216.2332" y1="399.5" y2="524.5"/><text fill="#000000" font-family="sans-serif" font-size="14" font-style="italic" lengthAdjust="spacingAndGlyphs" textLength="63" x="121.2332" y="416.0352">«fargate»</text><text fill="#000000" font-family="sans-serif" font-size="14" font-weight="bold" lengthAdjust="spacingAndGlyphs" textLength="49" x="128.2332" y="432.5234">node 1</text><!--MD5=[3c280d8c97835a85f6c8a8160571a4a4]
cluster node 2--><polygon fill="#FFFFFF" filter="url(#f1bs3yn3q21npd)" points="250.2332,399.5,260.2332,389.5,389.2332,389.5,389.2332,514.5,379.2332,524.5,250.2332,524.5,250.2332,399.5" style="stroke: #000000; stroke-width: 1.5;"/><line style="stroke: #000000; stroke-width: 1.5;" x1="379.2332" x2="389.2332" y1="399.5" y2="389.5"/><line style="stroke: #000000; stroke-width: 1.5;" x1="250.2332" x2="379.2332" y1="399.5" y2="399.5"/><line style="stroke: #000000; stroke-width: 1.5;" x1="379.2332" x2="379.2332" y1="399.5" y2="524.5"/><text fill="#000000" font-family="sans-serif" font-size="14" font-style="italic" lengthAdjust="spacingAndGlyphs" textLength="63" x="284.2332" y="416.0352">«fargate»</text><text fill="#000000" font-family="sans-serif" font-size="14" font-weight="bold" lengthAdjust="spacingAndGlyphs" textLength="49" x="291.2332" y="432.5234">node 2</text><!--MD5=[2331b1ac97b230f33a480480c6f0943e]
cluster node 3--><polygon fill="#FFFFFF" filter="url(#f1bs3yn3q21npd)" points="413.2332,399.5,423.2332,389.5,552.2332,389.5,552.2332,514.5,542.2332,524.5,413.2332,524.5,413.2332,399.5" style="stroke: #000000; stroke-width: 1.5;"/><line style="stroke: #000000; stroke-width: 1.5;" x1="542.2332" x2="552.2332" y1="399.5" y2="389.5"/><line style="stroke: #000000; stroke-width: 1.5;" x1="413.2332" x2="542.2332" y1="399.5" y2="399.5"/><line style="stroke: #000000; stroke-width: 1.5;" x1="542.2332" x2="542.2332" y1="399.5" y2="524.5"/><text fill="#000000" font-family="sans-serif" font-size="14" font-style="italic" lengthAdjust="spacingAndGlyphs" textLength="63" x="447.2332" y="416.0352">«fargate»</text><text fill="#000000" font-family="sans-serif" font-size="14" font-weight="bold" lengthAdjust="spacingAndGlyphs" textLength="49" x="454.2332" y="432.5234">node 3</text><!--MD5=[8f37ca366d387461b681078ee1af97e0]
cluster k8s:kube-system--><polygon fill="#FFFFFF" filter="url(#f1bs3yn3q21npd)" points="600.2332,330.5,731.2332,330.5,738.2332,352.9883,874.2332,352.9883,874.2332,548.5,600.2332,548.5,600.2332,330.5" style="stroke: #000000; stroke-width: 1.5;"/><line style="stroke: #000000; stroke-width: 1.5;" x1="600.2332" x2="738.2332" y1="352.9883" y2="352.9883"/><text fill="#000000" font-family="sans-serif" font-size="14" font-weight="bold" lengthAdjust="spacingAndGlyphs" textLength="125" x="604.2332" y="346.0352">k8s:kube-system</text><text fill="#000000" font-family="sans-serif" font-size="14" font-style="italic" lengthAdjust="spacingAndGlyphs" textLength="91" x="695.7332" y="368.5234">«namespace»</text><!--MD5=[afc5a476ed75537aa143b35f5ab0c393]
cluster node 4--><polygon fill="#FFFFFF" filter="url(#f1bs3yn3q21npd)" points="624.2332,399.5,634.2332,389.5,850.2332,389.5,850.2332,514.5,840.2332,524.5,624.2332,524.5,624.2332,399.5" style="stroke: #000000; stroke-width: 1.5;"/><line style="stroke: #000000; stroke-width: 1.5;" x1="840.2332" x2="850.2332" y1="399.5" y2="389.5"/><line style="stroke: #000000; stroke-width: 1.5;" x1="624.2332" x2="840.2332" y1="399.5" y2="399.5"/><line style="stroke: #000000; stroke-width: 1.5;" x1="840.2332" x2="840.2332" y1="399.5" y2="524.5"/><text fill="#000000" font-family="sans-serif" font-size="14" font-style="italic" lengthAdjust="spacingAndGlyphs" textLength="63" x="701.7332" y="416.0352">«fargate»</text><text fill="#000000" font-family="sans-serif" font-size="14" font-weight="bold" lengthAdjust="spacingAndGlyphs" textLength="49" x="708.7332" y="432.5234">node 4</text><!--MD5=[38bfa9dc6018363cafe15f923a4b8db9]
entity service--><rect fill="#FEFECE" filter="url(#f1bs3yn3q21npd)" height="62.9766" style="stroke: #A80036; stroke-width: 1.5;" width="101" x="295.7332" y="611.5"/><rect fill="#FEFECE" height="10" style="stroke: #A80036; stroke-width: 1.5;" width="15" x="376.7332" y="616.5"/><rect fill="#FEFECE" height="2" style="stroke: #A80036; stroke-width: 1.5;" width="4" x="374.7332" y="618.5"/><rect fill="#FEFECE" height="2" style="stroke: #A80036; stroke-width: 1.5;" width="4" x="374.7332" y="622.5"/><text fill="#000000" font-family="sans-serif" font-size="14" font-style="italic" lengthAdjust="spacingAndGlyphs" textLength="61" x="310.7332" y="645.0352">«service»</text><text fill="#000000" font-family="sans-serif" font-size="14" lengthAdjust="spacingAndGlyphs" textLength="47" x="317.7332" y="661.5234">service</text><!--MD5=[967c2b1a156e498aabfdc089710fb9a5]
entity ingress--><rect fill="#FEFECE" filter="url(#f1bs3yn3q21npd)" height="62.9766" style="stroke: #A80036; stroke-width: 1.5;" width="104" x="451.2332" y="611.5"/><rect fill="#FEFECE" height="10" style="stroke: #A80036; stroke-width: 1.5;" width="15" x="535.2332" y="616.5"/><rect fill="#FEFECE" height="2" style="stroke: #A80036; stroke-width: 1.5;" width="4" x="533.2332" y="618.5"/><rect fill="#FEFECE" height="2" style="stroke: #A80036; stroke-width: 1.5;" width="4" x="533.2332" y="622.5"/><text fill="#000000" font-family="sans-serif" font-size="14" font-style="italic" lengthAdjust="spacingAndGlyphs" textLength="64" x="466.2332" y="645.0352">«ingress»</text><text fill="#000000" font-family="sans-serif" font-size="14" lengthAdjust="spacingAndGlyphs" textLength="50" x="473.2332" y="661.5234">ingress</text><!--MD5=[40736541fd2477c5b31be5f547fc8994]
entity pod1--><rect fill="#FEFECE" filter="url(#f1bs3yn3q21npd)" height="62.9766" style="stroke: #A80036; stroke-width: 1.5;" width="84" x="126.2332" y="445.5"/><rect fill="#FEFECE" height="10" style="stroke: #A80036; stroke-width: 1.5;" width="15" x="190.2332" y="450.5"/><rect fill="#FEFECE" height="2" style="stroke: #A80036; stroke-width: 1.5;" width="4" x="188.2332" y="452.5"/><rect fill="#FEFECE" height="2" style="stroke: #A80036; stroke-width: 1.5;" width="4" x="188.2332" y="456.5"/><text fill="#000000" font-family="sans-serif" font-size="14" font-style="italic" lengthAdjust="spacingAndGlyphs" textLength="41" x="142.7332" y="479.0352">«pod»</text><text fill="#000000" font-family="sans-serif" font-size="14" lengthAdjust="spacingAndGlyphs" textLength="44" x="141.2332" y="495.5234">pod-1</text><!--MD5=[d37a07cae63c66d574c99dd81b5a8fd3]
entity pod2--><rect fill="#FEFECE" filter="url(#f1bs3yn3q21npd)" height="62.9766" style="stroke: #A80036; stroke-width: 1.5;" width="84" x="289.2332" y="445.5"/><rect fill="#FEFECE" height="10" style="stroke: #A80036; stroke-width: 1.5;" width="15" x="353.2332" y="450.5"/><rect fill="#FEFECE" height="2" style="stroke: #A80036; stroke-width: 1.5;" width="4" x="351.2332" y="452.5"/><rect fill="#FEFECE" height="2" style="stroke: #A80036; stroke-width: 1.5;" width="4" x="351.2332" y="456.5"/><text fill="#000000" font-family="sans-serif" font-size="14" font-style="italic" lengthAdjust="spacingAndGlyphs" textLength="41" x="305.7332" y="479.0352">«pod»</text><text fill="#000000" font-family="sans-serif" font-size="14" lengthAdjust="spacingAndGlyphs" textLength="44" x="304.2332" y="495.5234">pod-2</text><!--MD5=[0804ee0615eac1828d8ea7d46b94a779]
entity pod3--><rect fill="#FEFECE" filter="url(#f1bs3yn3q21npd)" height="62.9766" style="stroke: #A80036; stroke-width: 1.5;" width="84" x="429.2332" y="445.5"/><rect fill="#FEFECE" height="10" style="stroke: #A80036; stroke-width: 1.5;" width="15" x="493.2332" y="450.5"/><rect fill="#FEFECE" height="2" style="stroke: #A80036; stroke-width: 1.5;" width="4" x="491.2332" y="452.5"/><rect fill="#FEFECE" height="2" style="stroke: #A80036; stroke-width: 1.5;" width="4" x="491.2332" y="456.5"/><text fill="#000000" font-family="sans-serif" font-size="14" font-style="italic" lengthAdjust="spacingAndGlyphs" textLength="41" x="445.7332" y="479.0352">«pod»</text><text fill="#000000" font-family="sans-serif" font-size="14" lengthAdjust="spacingAndGlyphs" textLength="44" x="444.2332" y="495.5234">pod-3</text><!--MD5=[c05fcadc036a699206cfdfa4a4fdb889]
entity controller--><rect fill="#FEFECE" filter="url(#f1bs3yn3q21npd)" height="62.9766" style="stroke: #A80036; stroke-width: 1.5;" width="194" x="640.2332" y="445.5"/><rect fill="#FEFECE" height="10" style="stroke: #A80036; stroke-width: 1.5;" width="15" x="814.2332" y="450.5"/><rect fill="#FEFECE" height="2" style="stroke: #A80036; stroke-width: 1.5;" width="4" x="812.2332" y="452.5"/><rect fill="#FEFECE" height="2" style="stroke: #A80036; stroke-width: 1.5;" width="4" x="812.2332" y="456.5"/><text fill="#000000" font-family="sans-serif" font-size="14" font-style="italic" lengthAdjust="spacingAndGlyphs" textLength="41" x="711.7332" y="479.0352">«pod»</text><text fill="#000000" font-family="sans-serif" font-size="14" lengthAdjust="spacingAndGlyphs" textLength="154" x="655.2332" y="495.5234">alb-ingress-controller</text><!--MD5=[8fc3522a43f8c7199df5e09e5bb0188e]
entity user--><ellipse cx="401.2332" cy="14" fill="#FEFECE" filter="url(#f1bs3yn3q21npd)" rx="8" ry="8" style="stroke: #A80036; stroke-width: 1.5;"/><path d="M401.2332,22 L401.2332,49 M388.2332,30 L414.2332,30 M401.2332,49 L388.2332,64 M401.2332,49 L414.2332,64 " fill="none" filter="url(#f1bs3yn3q21npd)" style="stroke: #A80036; stroke-width: 1.5;"/><text fill="#000000" font-family="sans-serif" font-size="14" lengthAdjust="spacingAndGlyphs" textLength="30" x="386.2332" y="83.0352">user</text><!--MD5=[aa1aa13a4e1742b4092551bc8d9b085c]
entity ALB--><polygon fill="#FEFECE" filter="url(#f1bs3yn3q21npd)" points="368.7332,172.5,378.7332,162.5,433.7332,162.5,433.7332,198.9883,423.7332,208.9883,368.7332,208.9883,368.7332,172.5" style="stroke: #000000; stroke-width: 1.5;"/><line style="stroke: #000000; stroke-width: 1.5;" x1="423.7332" x2="433.7332" y1="172.5" y2="162.5"/><line style="stroke: #000000; stroke-width: 1.5;" x1="368.7332" x2="423.7332" y1="172.5" y2="172.5"/><line style="stroke: #000000; stroke-width: 1.5;" x1="423.7332" x2="423.7332" y1="172.5" y2="208.9883"/><text fill="#000000" font-family="sans-serif" font-size="14" lengthAdjust="spacingAndGlyphs" textLength="25" x="383.7332" y="196.0352">ALB</text><!--MD5=[e1b9ca9acd717f87af3526c934a93354]
link user to ALB--><path d="M401.2332,85.69 C401.2332,108.68 401.2332,137.02 401.2332,157.45 " fill="none" id="user-to-ALB" style="stroke: #A80036; stroke-width: 2.0;"/><polygon fill="#A80036" points="401.2332,162.46,405.2332,153.46,401.2332,157.46,397.2332,153.46,401.2332,162.46" style="stroke: #A80036; stroke-width: 2.0;"/><text fill="#000000" font-family="sans-serif" font-size="13" lengthAdjust="spacingAndGlyphs" textLength="33" x="402.2332" y="129.0684">https</text><!--MD5=[5c7dadd186b0c57365f0ce2a8a0a6d79]
link ALB to pod1--><path d="M368.5232,199.81 C340.3132,212.65 300.0232,234.4 273.2332,263.5 C224.8332,316.08 193.7732,395.12 178.8132,440.52 " fill="none" id="ALB-to-pod1" style="stroke: #A80036; stroke-width: 2.0;"/><polygon fill="#A80036" points="177.2332,445.34,183.8146,438.013,178.7757,440.5839,176.2049,435.545,177.2332,445.34" style="stroke: #A80036; stroke-width: 2.0;"/><text fill="#000000" font-family="sans-serif" font-size="13" lengthAdjust="spacingAndGlyphs" textLength="26" x="301.2332" y="252.0684">http</text><!--MD5=[67fe8fe1495e672e67a6e72837bd56d5]
link ALB to pod2--><path d="M392.4132,208.54 C388.9432,217.71 385.1132,228.53 382.2332,238.5 C361.8732,309.07 345.6132,393.54 337.2932,440.33 " fill="none" id="ALB-to-pod2" style="stroke: #A80036; stroke-width: 2.0;"/><polygon fill="#A80036" points="336.4132,445.3,341.9191,437.1339,337.2838,440.3764,334.0413,435.741,336.4132,445.3" style="stroke: #A80036; stroke-width: 2.0;"/><text fill="#000000" font-family="sans-serif" font-size="13" lengthAdjust="spacingAndGlyphs" textLength="26" x="383.2332" y="252.0684">http</text><!--MD5=[fad520229dd4cf94455f7cbd348b3e04]
link ALB to pod3--><path d="M406.7832,208.5 C409.1032,217.76 411.8232,228.65 414.2332,238.5 C431.7532,310.03 451.7332,393.81 462.7732,440.3 " fill="none" id="ALB-to-pod3" style="stroke: #A80036; stroke-width: 2.0;"/><polygon fill="#A80036" points="463.9432,445.23,465.7486,435.548,462.7845,440.3661,457.9664,437.402,463.9432,445.23" style="stroke: #A80036; stroke-width: 2.0;"/><text fill="#000000" font-family="sans-serif" font-size="13" lengthAdjust="spacingAndGlyphs" textLength="26" x="418.2332" y="252.0684">http</text><!--MD5=[67bf0409a480e9171fd67e3129276014]
reverse link pod1 to service--><path d="M205.5132,512.35 C237.2332,541.57 282.3732,583.16 312.9032,611.29 " fill="none" id="pod1-backto-service" style="stroke: #A80036; stroke-width: 1.0; stroke-dasharray: 7.0,7.0;"/><polygon fill="#A80036" points="201.7132,508.85,205.6177,517.8918,205.3889,512.2396,211.0411,512.0108,201.7132,508.85" style="stroke: #A80036; stroke-width: 1.0;"/><!--MD5=[ed670ae9a3e94c84bce90b02c94d2fe9]
reverse link pod2 to service--><path d="M334.5432,514.14 C337.2032,543.26 340.9032,583.73 343.4232,611.29 " fill="none" id="pod2-backto-service" style="stroke: #A80036; stroke-width: 1.0; stroke-dasharray: 7.0,7.0;"/><polygon fill="#A80036" points="334.0532,508.85,330.8917,518.1776,334.5097,513.8291,338.8583,517.4472,334.0532,508.85" style="stroke: #A80036; stroke-width: 1.0;"/><!--MD5=[0fad21a9d9c8a0b969aa01e4a77c4718]
reverse link pod3 to service--><path d="M444.5132,513.06 C422.2632,542.25 390.9032,583.39 369.6432,611.29 " fill="none" id="pod3-backto-service" style="stroke: #A80036; stroke-width: 1.0; stroke-dasharray: 7.0,7.0;"/><polygon fill="#A80036" points="447.7232,508.85,439.085,513.581,444.6913,512.8258,445.4464,518.4321,447.7232,508.85" style="stroke: #A80036; stroke-width: 1.0;"/><!--MD5=[ce92c105cf568d3bfdc1182bba8715e4]
reverse link service to ingress--><path d="M401.8932,643 C418.2132,643 434.5432,643 450.8632,643 " fill="none" id="service-backto-ingress" style="stroke: #A80036; stroke-width: 1.0; stroke-dasharray: 7.0,7.0;"/><polygon fill="#A80036" points="396.8332,643,405.8332,647,401.8332,643,405.8332,639,396.8332,643" style="stroke: #A80036; stroke-width: 1.0;"/><!--MD5=[c143694b2e02e462e9cdf8b97ba91f03]
link controller to ingress--><path d="M693.4932,508.65 C652.9532,537.07 592.7732,579.24 550.9932,608.53 " fill="none" id="controller-to-ingress" style="stroke: #A80036; stroke-width: 1.0; stroke-dasharray: 7.0,7.0;"/><polygon fill="#A80036" points="546.7532,611.5,556.4197,609.6135,550.8487,608.6317,551.8305,603.0607,546.7532,611.5" style="stroke: #A80036; stroke-width: 1.0;"/><text fill="#000000" font-family="sans-serif" font-size="13" lengthAdjust="spacingAndGlyphs" textLength="73" x="613.2332" y="578.0684">reconciliate</text><!--MD5=[f302d86e3bf4081604aa89a4e2b6c45e]
reverse link ALB to controller--><path d="M438.2332,205.47 C464.7032,219.81 500.5732,240.85 529.2332,263.5 C601.7332,320.8 674.5332,401.86 711.7732,445.44 " fill="none" id="ALB-backto-controller" style="stroke: #A80036; stroke-width: 1.0; stroke-dasharray: 7.0,7.0;"/><polygon fill="#A80036" points="433.7332,203.05,439.758,210.8411,438.1346,205.4222,443.5536,203.7988,433.7332,203.05" style="stroke: #A80036; stroke-width: 1.0;"/><text fill="#000000" font-family="sans-serif" font-size="13" lengthAdjust="spacingAndGlyphs" textLength="38" x="517.2332" y="252.0684">create</text><!--MD5=[cf821a61cf1dc50fa22a5a90a7f23520]
@startuml deployment

actor user
node ALB
cloud "default" <<fargate profile>> {
  folder "k8s:application" <<namespace>> {
    node "node 1" <<fargate>> {
      component pod1 <<pod>> [
        pod-1
      ]
    }
    node "node 2" <<fargate>> {
      component pod2 <<pod>> [
        pod-2
      ]
    }
    node "node 3" <<fargate>> {
      component pod3 <<pod>> [
        pod-3
      ]
    }

    component service <<service>>
    component ingress <<ingress>>
  }

  folder "k8s:kube-system" <<namespace>> {
    node "node 4" <<fargate>> {
      component controller <<pod>> [
        alb-ingress-controller
      ]
    }
  }
}

user =down=> ALB : https
ALB ==> pod1 : http
ALB ==> pod2 : http
ALB ==> pod3 : http
service .up.> pod1
service .up.> pod2
service .up.> pod3
ingress .left.> service
controller ..> ingress : reconciliate
controller .up.> ALB : create
	
@enduml

PlantUML version 1.2020.16(Sun Aug 23 22:20:43 CEST 2020)
(GPL source distribution)
Java Runtime: OpenJDK Runtime Environment
JVM: OpenJDK 64-Bit Server VM
Default Encoding: UTF-8
Language: en
Country: NL
--></g></svg>